<svg id="Layer_1" enable-background="new 0 0 512 512" height="512" viewBox="0 0 512 512" width="512" xmlns="http://www.w3.org/2000/svg"><g><path d="m92.66 449.59 363.996-323.185c-44.317-63.134-117.662-104.409-200.656-104.409-135.311 0-245.002 109.691-245.002 245.002 0 72.554 31.548 137.731 81.662 182.592z" fill="#ffdd40"/><path d="m256 512c57.639 0 110.62-19.914 152.463-53.223h-304.926c41.843 33.309 94.824 53.223 152.463 53.223z" fill="#3c58a0"/><path d="m278.753 458.777-18.806 12.502s37.079 22.162-7.807 40.68c1.285.02 2.57.042 3.86.042 57.639 0 110.62-19.914 152.463-53.223h-129.71z" fill="#2a428c"/><path d="m214.194 317.323v66.143h257.403c11.079-20.466 19.324-42.69 24.22-66.143z" fill="#816ae2"/><path d="m133.281 317.323h80.913v66.143h-80.913z" fill="#7255ce"/><path d="m113.95 467.861v29.395c0 8.109 6.635 14.744 14.744 14.744h27.187c8.109 0 14.744-6.635 14.744-14.744v-29.395c-13.741 0-41.818 0-56.675 0z" fill="#e9efff"/><path d="m139.876 498.855c0-8.109 6.635-14.744 14.744-14.744h16.005v-16.25c-13.742 0-41.818 0-56.675 0v29.395c0 8.109 6.635 14.744 14.744 14.744h11.182z" fill="#bec8f7"/><path d="m345.195 382.431h-182.404c-11.277 0-20.503-9.226-20.503-20.503v-43.569h223.411v43.57c0 11.276-9.227 20.502-20.504 20.502z" fill="#5c45bf"/><path d="m241.398 318.358h-99.11v43.569c0 11.277 9.226 20.503 20.503 20.503h93.209c-16.861-6.652-14.602-26.341-14.602-26.341s0-15.379 0-37.731z" fill="#4a37b7"/><path d="m345.195 125.855h-207.595c-11.277 0-20.503 9.227-20.503 20.503v101.408c12.976 7.127 21.774 20.92 21.774 36.77v33.821h209.334c9.622 0 17.494-7.872 17.494-17.494v-154.504c0-11.277-9.227-20.504-20.504-20.504z" fill="#7255ce"/><path d="m117.097 146.359v101.408c12.976 7.127 21.774 20.92 21.774 36.77v33.821h102.527c0-55.034 0-152.341 0-166.455 0-19.846 18.549-26.048 18.549-26.048h-122.347c-11.277 0-20.503 9.227-20.503 20.504z" fill="#5c45bf"/><path d="m495.593 318.358h-129.894v43.569c0 11.277 9.227 20.503 20.503 20.503h85.942c10.638-19.877 18.61-41.393 23.449-64.072z" fill="#7255ce"/><path d="m140.461 382.431v88.847h250.82c33.765-22.405 61.653-52.952 80.864-88.847-123.868 0-299.862 0-331.684 0z" fill="#816ae2"/><path d="m245.002 451.75s0-34 0-48 10.998-21.319 10.998-21.319c-56.172 0-100.97 0-115.539 0v88.847h119.486c-15.581-4.971-14.945-19.528-14.945-19.528z" fill="#7255ce"/><path d="m500.284 248.187c-3.444-45.344-19.231-87.237-44.009-122.332h-70.074c-11.277 0-20.503 9.227-20.503 20.503v154.505c0 9.622 7.873 17.494 17.494 17.494h112.4c2.982-13.979 4.768-28.4 5.257-43.149z" fill="#816ae2"/><path d="m97.662 240.986c-20.987 1.314-38.01 18.485-39.162 39.481-.827 15.068 6.319 28.493 17.593 36.501 6.105 4.337 9.52 11.542 9.52 19.03v114.346c0 11.561 9.372 20.934 20.934 20.934h35.742v-188.45c-.001-24.049-20.249-43.369-44.627-41.842z" fill="#9181f2"/><path d="m209.409.835c-4.229 4.675-11.515 10.714-53.846 10.447-26.183-.165-34.058 26.683-36.417 43.803-1.044 7.572 1.065 15.23 5.724 21.29 8.785 11.425 14.295 25.53 14.295 25.53 1.763.05 3.537-.005 5.309-.142 3.748-1.124 8.929-3.184 13.432-6.782 2.275-1.818 2.706-5.077.982-7.418-2.432-3.304-3.868-6.021-3.94-7.455-.074-1.478 1.854-5.905 5.1-8.413 1.979-1.53 3.979-1.994 5.941-1.377 1.572.494 2.808 1.78 3.309 3.44.816 2.708 2.717 7.739 6.288 11.02.767.705 1.825.939 2.827.627 1.015-.316 1.761-1.12 1.995-2.151.561-2.467 1.774-6.009 4.367-8.876 10.641-11.762 10.665-21.817 9.732-26.765-.26-1.379.5-2.784 1.808-3.34 4.747-2.02 13.483-6.26 18.659-11.983l.288-1.978c13.192-18.498-1.624-34.152-5.853-29.477z" fill="#2a428c"/><path d="m155.563 11.282c-26.183-.165-34.058 26.683-36.417 43.803-1.044 7.572 1.065 15.23 5.724 21.29 8.785 11.425 14.295 25.53 14.295 25.53 1.763.05 3.537-.005 5.309-.142 3.748-1.124 8.929-3.184 13.432-6.782 2.275-1.818 2.706-5.077.982-7.418-2.432-3.304-3.868-6.021-3.94-7.455-.074-1.478 1.854-5.905 5.1-8.413 1.979-1.53 3.979-1.994 5.941-1.377-36.039-25.933-1.473-59.079-1.473-59.079l-.011-.003c-2.8.046-5.761.066-8.942.046z" fill="#1c2e7a"/><path d="m234.803 86.846c-.144-.779-.52-1.493-1.03-2.1-1.967-2.345-6.316-7.407-10.921-11.967-6.244-6.183.657-12.971.657-12.971s-2.068-17.82-8.248-29.497l-1.104 1.269c-5.02 5.548-13.576 9.702-18.267 11.698-1.773.754-2.804 2.642-2.447 4.535 2.102 11.149-5.259 21.184-9.471 25.839-2.774 3.066-4.046 6.84-4.619 9.361-.312 1.37-2.003 1.919-3.037.968-3.355-3.083-5.171-7.836-5.984-10.536-.59-1.956-2.07-3.547-4.019-4.16-6.987-2.196-12.602 7.74-12.445 10.875.107 2.139 2.331 5.572 4.149 8.041 1.375 1.868 1.026 4.486-.786 5.934-7.868 6.287-18.066 7.768-18.066 7.768-.73 3.64-1.948 7.383-3.501 11.127.122.11.236.234.337.373.427.59 1.127 1.205 2.266 1.721 0 0 1.59.851 4.188 2.36 7.838 3.044 26.343 10.788 39.166 20.59 1.704-6.675 4.045-11.871 6.62-14.471 5.041-5.09 16.852-.624 21.271.474 5.112 1.27 10.234-2.864 9.889-8.082-.324-4.897.687-8.691 1.543-10.935.529-1.387-.024-2.953-1.292-3.725l-2.998-1.825c-.431-.263-.22-.928.284-.893l3.867.266c1.554.107 2.945-.957 3.25-2.484l.288-1.445c.225-1.128 1.056-2.038 2.159-2.364l4.429-.494c2.522-.281 4.353-2.638 3.872-5.25z" fill="#f9ba8f"/><path d="m188.24 123.604c2.123-2.144 5.449-2.583 8.916-2.302-18.494-10.57-20.138-30.407-20.151-36.939-.244-.076-.481-.191-.689-.381-3.355-3.083-5.171-7.836-5.984-10.536-.59-1.956-2.07-3.547-4.019-4.16-6.987-2.196-12.602 7.74-12.445 10.875.107 2.139 2.331 5.572 4.149 8.041 1.375 1.868 1.026 4.486-.786 5.934-7.868 6.287-18.066 7.768-18.066 7.768-.73 3.64-1.948 7.383-3.501 11.127.122.11.236.234.337.373.427.59 1.127 1.205 2.266 1.721 0 0 1.59.851 4.188 2.36 7.838 3.044 26.343 10.788 39.166 20.59 1.702-6.675 4.044-11.871 6.619-14.471z" fill="#fcad6d"/><path d="m499.024 235.723c-12.775-.033-24.561-.165-33.752-.463-11.961-.387-23.91.693-35.607 3.226-5.375 1.164-11.956 2.507-19.514 3.903 1.422 1.099 2.588 2.556 3.352 4.291 5.344 12.128 10.401 29.701 9.404 51.67-.052 1.137-.363 2.216-.878 3.179 6.952-2.488 13.054-4.819 18.111-6.837 11.622-4.638 25.186-5.496 37.693-5.874 6.276-.19 13.831-.501 22.28-1.008.577-6.863.889-13.801.889-20.813 0-10.595-.674-21.033-1.978-31.274z" fill="#f9ba8f"/><path d="m457.196 235.232c-9.254.211-18.469 1.291-27.531 3.254-5.375 1.164-11.956 2.507-19.514 3.903 1.422 1.099 2.588 2.556 3.352 4.291 5.344 12.128 10.401 29.701 9.404 51.67-.052 1.137-.363 2.216-.878 3.179 6.952-2.488 13.054-4.819 18.111-6.837 7.853-3.134 16.593-4.539 25.294-5.239-20.113-22.795-12.82-44.99-8.238-54.221z" fill="#fcad6d"/><path d="m424.144 298.351c.996-21.969-4.061-39.542-9.404-51.67-2.035-4.618-6.916-7.273-11.889-6.418-28.432 4.89-67.818 9.884-110.112 9.884l-2.396 5.435c-.284 12.35-3.69 43.24-28.943 65.671l-1.453 3.296s66.799 6.595 116.263-6.389c16.154-4.24 30.644-8.808 42.851-13.039 2.915-1.01 4.943-3.688 5.083-6.77z" fill="#2a428c"/><path d="m419.061 305.121c2.915-1.01 4.943-3.688 5.083-6.77.493-10.866-.498-20.652-2.269-29.24-8.174 13.681-23.597 17.139-23.597 17.139s-34.25 5-66.25 8.75-44.215-10.657-44.215-10.657l-2.74.762c-4.071 11.947-11.207 25.077-23.672 36.148l-1.453 3.296s66.799 6.595 116.263-6.389c16.152-4.24 30.643-8.807 42.85-13.039z" fill="#1c2e7a"/><path d="m259.947 324.549s-82.232-21.73-124.301-63.799-46.659-114.423-5.995-141.347l1.863.635c.092 1.976 1.39 3.724 3.322 4.352 15.915 5.181 35.602 20.351 43.328 26.633.669.542 1.659.352 2.103-.407 2.586-4.428 3.617-9.084 4.027-12.21.016-.126.018-.251.025-.376l1.814.618c4.618 5.223 14.68 20.182 18.808 25.864 19.28 26.544 41.426 67.086 87.799 85.635-.001 0 3.665 45.857-32.793 74.402z" fill="#73c3f9"/><path d="m287.812 284.343c-12.453 6.807-25.535.657-25.535.657l-77.006-44.897c-23.756-49.647 28.819-62.519 28.819-62.519-3.168-4.6-6.194-9.002-9.151-13.073-4.127-5.683-14.189-20.642-18.808-25.864l-1.814-.618c-.007.125-.009.25-.025.376-.41 3.127-1.441 7.782-4.027 12.21-.443.759-1.433.949-2.103.407-7.726-6.282-27.412-21.452-43.328-26.633-1.931-.627-3.23-2.376-3.322-4.352l-1.863-.635c-40.664 26.924-36.074 99.278 5.995 141.347s124.301 63.799 124.301 63.799c15.223-11.916 23.447-26.85 27.867-40.205z" fill="#4fabf7"/><path d="m379.037 151.943c.61.454 1.101 1.008 1.509 1.613l.661-.066c-20.095-25.169-48.989-42.561-58.137-47.698-1.529-.859-3.462-.19-4.129 1.432l-7.349 17.855c13.734 1.587 40.752 7.003 67.445 26.864z" fill="#e9efff"/><path d="m340.668 131.733c11.756 4.038 25.102 10.339 38.368 20.21.61.454 1.101 1.008 1.509 1.613l.661-.066c-11.59-14.517-26.102-26.439-38.07-34.922.015.026 4.503 8.265-2.468 13.165z" fill="#bec8f7"/><path d="m346.981 246.498 34.234-86.66c1.266-3.204.585-7.094-2.179-9.15-30.353-22.585-61.135-26.493-72.316-27.33-1.43-.107-2.681.971-3.208 2.304l-37.541 95.029c-.932 2.359.773 4.699 3.292 4.986 12.311 1.402 39.937 6.013 64.996 24.236 4.451 3.236 10.701 1.701 12.722-3.415z" fill="#ff7186"/><path d="m349.362 133.791c-18.975-7.938-35.178-9.874-42.642-10.433-1.43-.107-2.681.971-3.208 2.304l-37.541 95.029c-.932 2.359.773 4.699 3.292 4.986 9.912 1.129 29.751 4.343 50.184 15.061 4.213-.939 5.185-2.661.579-5.555-20-12.567-12.75-30.433-12.75-30.433s13.25-36.75 20-54c6.736-17.212 22.018-16.96 22.086-16.959z" fill="#ff4155"/><path d="m183.584 130.926c-16.437-13.584-45.016-23.663-45.016-23.663-1.204-.337-1.988-.839-2.5-1.358-.992-1.006-2.659-.935-3.426.251-2.027 3.132-2.75 8.116-2.991 11.963-.191 3.045 1.709 5.807 4.61 6.752 15.767 5.132 35.588 20.498 42.732 26.307 1.557 1.266 3.863.823 4.875-.911 2.741-4.695 3.832-9.604 4.265-12.904.319-2.444-.649-4.867-2.549-6.437z" fill="#9bd8f9"/><path d="m332.955 233.633c-6.498-5.384-16.507-9.522-23.213-9.522-6.36 0-14.754 6.687-19.403 10.89-2.518 2.276-5.573 3.852-8.892 4.561-20.437 4.366-47.426 7.294-59.296 6.32-5.883-.483-11.504-2.72-15.996-6.55-4.451-3.795-8.65-8.551-12.415-13.473l-35.618 24.695c-.822.57-1.716.969-2.637 1.224l1.4 2.486c29.604 50.162 121.551 11.188 135.048 5.218 1.18-.522 2.414-.914 3.674-1.189 19.976-4.366 30.682-8.831 36.401-12.233 4.509-2.681 4.987-9.079.947-12.427z" fill="#f9ba8f"/><path d="m213.323 243.723c-2.585-1.087-5.009-2.55-7.169-4.39-4.451-3.795-8.65-8.551-12.415-13.473l-35.618 24.695c-.822.57-1.716.969-2.637 1.224l1.4 2.486c9.761 16.54 26.302 23.385 44.572 24.922-11.442-19.748 2.681-30.741 11.867-35.464z" fill="#fcad6d"/><path d="m171.625 167.308c-15.735-24.873-54.739-14.93-55.918 14.478-1.035 25.829 13.091 51.705 31.29 70.206 2.961 3.01 7.654 3.441 11.124 1.035l37.3-25.861c3.628-2.516 4.79-7.354 2.699-11.243-22.705-42.226-23.188-43.387-26.495-48.615z" fill="#9bd8f9"/><path d="m174.864 240.992c-18.2-18.501-32.326-44.378-31.29-70.206.279-6.946 2.684-12.789 6.378-17.361-16.18-1.988-33.466 8.934-34.244 28.361-1.035 25.829 13.091 51.705 31.29 70.206 2.961 3.01 7.654 3.441 11.124 1.035l17.006-11.791c-.088-.081-.179-.158-.264-.244z" fill="#73c3f9"/><path d="m162.367 117.597c-12.485-6.343-23.8-10.335-23.8-10.335-1.204-.337-1.988-.839-2.5-1.358-.992-1.006-2.659-.935-3.426.251-2.027 3.132-2.75 8.116-2.991 11.963-.191 3.045 1.709 5.807 4.61 6.752 6.48 2.109 13.643 5.948 20.331 10.14-2.391-10.083 3.603-15.166 7.776-17.413z" fill="#73c3f9"/><path d="m142.288 318.358c-32.053 21.074-59.627 3.418-65.177-.615 5.463 4.39 8.501 11.196 8.501 18.256v114.346c0 11.561 9.372 20.934 20.934 20.934h35.742z" fill="#816ae2"/></g></svg>