<svg height="512" viewBox="0 0 58 58" width="512" xmlns="http://www.w3.org/2000/svg"><g id="Page-1" fill="none" fill-rule="evenodd"><g id="007---Bookworm" fill-rule="nonzero"><path id="Shape" d="m20 0v44h-1c-2.7614237 0-5 2.2385763-5 5v-44c0-2.76142375 2.2385763-5 5-5z" fill="#b49aca"/><path id="Shape" d="m53 2v40c-.0032948 1.1032019-.8967981 1.9967052-2 2h-31v-44h31c1.1032019.0032948 1.9967052.89679813 2 2z" fill="#7d6599"/><path id="Shape" d="m50 54h-30.79c-2.6276897.0421177-4.8650892-1.902135-5.19-4.51-.0164377-.162788-.0231163-.3264139-.02-.49 0-2.7614237 2.2385763-5 5-5h31c-1.66 0-3 2.24-3 5s1.34 5 3 5z" fill="#f5efca"/><path id="Shape" d="m51 43h-31c-3.3089247.0115209-5.9884791 2.6910753-6 6-.0030905.19563.0049224.3912779.024.586.3831886 3.1162408 3.0464632 5.4471442 6.186 5.414h31.79c.5522847 0 1-.4477153 1-1v-13c-.0032948 1.1032019-.8967981 1.9967052-2 2zm-34.987 6.376c-.0117688-.1249657-.0161098-.2505198-.013-.376.0087695-2.2054964 1.7945036-3.9912305 4-4h28.215c-1.6199626 2.4206405-1.6199626 5.5793595 0 8h-28.005c-2.1185211.039204-3.9270188-1.5223866-4.197-3.624z" fill="#5d4c72"/><path id="Shape" d="m24 49h10v8c.0000756.3602062-.193577.692619-.5069584.8702156-.3133815.1775966-.6980603.1729304-1.0070416-.0122156l-2.972-1.783c-.3164363-.1896131-.7115637-.1896131-1.028 0l-2.972 1.783c-.3089813.185146-.6936601.1898122-1.0070416.0122156-.3133814-.1775966-.507034-.5100094-.5069584-.8702156z" fill="#e64c3c"/><path id="Shape" d="m30.61 18.62c-.4074377 1.4242312-.6127776 2.8986384-.61 4.38v5.16c-2.4-.97-4-2.69-4-4.66 0-2.13 1.87-3.98 4.61-4.88z" fill="#3d324c"/><path id="Shape" d="m43 23.5c0 1.97-1.6 3.69-4.0000297 4.66l.0000297-5.16c-.0037998-1.293441.3566152-2.5618245 1.04-3.66 1.81 1 2.96 2.49 2.96 4.16z" fill="#3d324c"/><path id="Shape" d="m14 40v9.0000048c-3.3660067.0027802-6.61944485-1.2119314-9.16-3.4200048-.25-.21-.5-.44-.74-.68s-.47-.49-.68-.74c-1.98385571-2.2801892-3.17044963-5.1448657-3.38-8.16-.03-.33-.04-.66-.04-1v-13.5c0-2.4852814 2.01471863-4.5 4.5-4.5s4.5 2.0147186 4.5 4.5v13.5c-.00241072.3359451.03111324.6711847.1 1 .12869278.6262665.37285248 1.2231013.72 1.76.3790644.5590475.8609525 1.0409356 1.42 1.42.8218356.5334221 1.7802299.8181624 2.76.82z" fill="#ff5364"/><g fill="#fb7b76"><path id="Shape" d="m9.1 36h-9.06c-.03-.33-.04-.66-.04-1v-1h9v1c-.00241072.3359451.03111324.6711847.1 1z"/><path id="Rectangle-path" d="m0 26h9v2h-9z"/><path id="Shape" d="m11.24 39.18-6.4 6.4c-.25-.21-.5-.44-.74-.68s-.47-.49-.68-.74l6.4-6.4c.3790644.5590475.8609525 1.0409356 1.42 1.42z"/></g><path id="Shape" d="m38 50h-17c-.5522847 0-1-.4477153-1-1s.4477153-1 1-1h17c.5522847 0 1 .4477153 1 1s-.4477153 1-1 1z" fill="#cbb292"/><path id="Shape" d="m58 11.5c.0015951 1.1939625-.4719984 2.3394822-1.3162581 3.1837419s-1.9897794 1.3178532-3.1837419 1.3162581h-7.5c-.3350794-.0039982-.669818.0227809-1 .08-.3385367.0472756-.6728799.1208311-1 .22-1.0175052.2988691-1.9519354.8294064-2.73 1.55-.2501356.2234799-.4809554.4676806-.69.73-.2032772.2359622-.3840629.4904014-.54.76-.017256.0245181-.0307391.0514844-.04.08-.4842911.7868141-.8009011 1.6651515-.93 2.58-.0488792.331052-.0722813.6653668-.07 1v5.16c-2.8954744 1.1199587-6.1045256 1.1199587-9 0v-5.16c0-.34.01-.67.04-1 .0604412-1.1447215.2516854-2.278766.57-3.38.5850383-2.0649286 1.5816865-3.9901944 2.93-5.66.2-.26.42-.52.65-.77.17-.18.33-.34.49-.51l.21-.21c2.4868749-2.39457077 5.6836298-3.91750339 9.11-4.34.33-.05.66-.08 1-.1s.66-.03 1-.03h3c-.0021995 1.93521216 1.3832808 3.5935847 3.2880227 3.9356508 1.9047419.342066 3.7806799-.7305996 4.4519773-2.5456508.8103711.83211555 1.2626634 1.9484878 1.26 3.11z" fill="#ff5364"/><path id="Shape" d="m57 7c.0016637.47557441-.0865504.94718058-.26 1.39-.7322113 1.9236974-2.8115507 2.9705274-4.792933 2.4129712-1.9813824-.5575562-3.2096587-2.53514117-2.83121-4.55838644.3784488-2.02324526 2.2384877-3.4231598 4.2874395-3.2268405s3.6093257 1.92395898 3.5967035 3.98225574z" fill="#fff"/><circle id="Oval" cx="53" cy="7" fill="#2c2f38" r="1"/><path id="Shape" d="m41.27 17.85c-.2501356.2234799-.4809554.4676806-.69.73-.2032772.2359622-.3840629.4904014-.54.76-.017256.0245181-.0307391.0514844-.04.08l-6.46-6.46c.2-.26.42-.52.65-.77.17-.18.33-.34.49-.51l.21-.21z" fill="#fb7b76"/><path id="Shape" d="m39.07 22c-.0488792.331052-.0722813.6653668-.07 1v1h-9v-1c0-.34.01-.67.04-1z" fill="#fb7b76"/><path id="Shape" d="m46 7v9c-.3350794-.0039982-.669818.0227809-1 .08-.3385367.0472756-.6728799.1208311-1 .22v-9.17c.33-.05.66-.08 1-.1s.66-.03 1-.03z" fill="#fb7b76"/></g></g></svg>