<svg height="512" viewBox="0 0 54 58" width="512" xmlns="http://www.w3.org/2000/svg"><g id="Page-1" fill="none" fill-rule="evenodd"><g id="018---Bear-Reading-Book" fill-rule="nonzero"><path id="Shape" d="m51.52 20.49c2.24-2.55 2.88-5.6-1.48-10-1.27-6.42-11.27-10.49-20.32-10.49s-16.3 2.72-18.93 7.32h-.44c-1.79-.18-3.84.68-6.35 3.17-4.72 4.72-3.63 7.9-1 10.57 1.52349724 1.4374789 3.38379644 2.4690681 5.41 3-1.43335224 2.729738-2.20736039 5.7572744-2.26 8.84-.03412614 2.504769.64571744 4.9674677 1.96 7.1h-.11c-3.3137085 0-6 2.6862915-6 6s2.6862915 6 6 6h2l17 6 17-6h2c3.3137085 0 6-2.6862915 6-6s-2.6862915-6-6-6h-.11c1.146755-1.8590428 1.8038619-3.9782984 1.91-6.16 2.09 4.36 5.46 7.2 5.46 3.29 0-3.19-.89-10.43-1.74-16.64z" fill="#a56a43"/><path id="Shape" d="m42 17.69c-1.4631665-1.5645488-1.4631665-3.9954512 0-5.56.4958358-.6385376 1.2064434-1.0755613 2-1.23.38 0 1.47.21 3.44 2.19 3.21 3.2 2.31 4.09 1 5.44-.8040695.7556079-1.8798961 1.1533309-2.9821135 1.1024594-1.1022174-.0508716-2.1368355-.5459997-2.8678865-1.3724594z" fill="#ff5364"/><path id="Shape" d="m44.62 21.58c-.5522847.0745584-1.0604416-.3127153-1.135-.865s.3127153-1.0604416.865-1.135c1.2543519-.3167128 2.4094631-.942398 3.36-1.82.6-.6.93-.95.93-1.31s-.34-1.16-1.89-2.72c-1.88-1.84-2.75-1.86-2.75-1.86s-.38 0-1.29.93c-.8013181.8524521-1.3935631 1.8794664-1.73 3-.1631424.5272508-.7225945.8226415-1.25.66-.2555208-.0782264-.4691025-.2554689-.5930976-.492187-.1239952-.236718-.1480876-.5132168-.0669024-.767813.4290166-1.439164 1.1893464-2.7577539 2.22-3.85.6752567-.8284731 1.6479883-1.35970667 2.71-1.48.76 0 2.1.43 4.15 2.48 1.73 1.73 2.47 3 2.48 4.11-.0937679 1.0907396-.6462846 2.0903587-1.52 2.75-1.1991344 1.1150296-2.6558769 1.9155508-4.24 2.33-.08076.0261953-.1650984.0396895-.25.04z" fill="#805333"/><path id="Shape" d="m11.48 18.27c-.731051.8264597-1.7656691 1.3215878-2.86788649 1.3724594-1.10221739.0508715-2.17804402-.3468515-2.98211351-1.1024594-1.35-1.35-2.25-2.24 1-5.44 2-2 3.06-2.19 3.44-2.19.7935566.1544387 1.5041642.5914624 2 1.23 1.4631665 1.5645488 1.4631665 3.9954512 0 5.56z" fill="#ff5364"/><path id="Shape" d="m9.39 21.58c-.08941122.0145589-.18058878.0145589-.27 0-1.58412312-.4144492-3.04086561-1.2149704-4.24-2.33-.87081154-.6621558-1.4225582-1.6603817-1.52-2.75 0-1.16.75-2.38 2.48-4.11 2.05-2 3.39-2.48 4.15-2.48 1.0681125.1304491 2.0417883.6765699 2.71 1.52 1.0306536 1.0922461 1.7909834 2.410836 2.22 3.85.0811852.2545962.0570928.531095-.0669024.767813-.1239951.2367181-.3375768.4139606-.5930976.492187-.2599849.0797693-.5412447.0502142-.7789694-.0818551-.2377247-.1320692-.4114088-.3552607-.4810306-.6181449-.3364369-1.1205336-.9286819-2.1475479-1.73-3-.91-.91-1.28-.93-1.29-.93s-.86 0-2.74 1.89c-1.54 1.52-1.88 2.3-1.88 2.68s.33.71.93 1.31c.95201775.8755298 2.10657474 1.5009148 3.36 1.82.25604173.0701124.4736979.2391555.6050026.4698766.1313046.230721.165481.5041836.0949974.7601234-.1170117.4345954-.50993501.7374738-.96.74z" fill="#805333"/><path id="Shape" d="m40.17 8.91c-.24.19-.48.4-.72.62-1.5624036 1.5059945-2.6444589 3.4404727-3.11 5.56-2.8951628-1.4511341-6.1024788-2.1688311-9.34-2.09-3.2375212-.0788311-6.4448372.6388659-9.34 2.09-.4655411-2.1195273-1.5475964-4.0540055-3.11-5.56-.24-.22-.48-.43-.72-.62 1.77-1.21 5.6-2.91 13.17-2.91s11.4 1.7 13.17 2.91z" fill="#f3d55b"/><path id="Shape" d="m50 10.52c-4.31-4.31-7.26-3.68-9.84-1.58-1.76-1.24-5.59-2.94-13.16-2.94s-11.4 1.7-13.17 2.91c-.8536033-.75888001-1.8858142-1.28874823-3-1.54-.1417991-.02977273-.2854671-.04981944-.43-.06h.44c2.58-4.59 9.82-7.31 18.88-7.31s19.05 4.07 20.28 10.52z" fill="#3b97d3"/><path id="Shape" d="m53.26 37.13c0 3.91-3.37 1.07-5.46-3.29 0-.3 0-.61 0-.93-.0526396-3.0827256-.8266478-6.110262-2.26-8.84 2.0262036-.5309319 3.8865028-1.5625211 5.41-3 .1933333-.1866667.3733333-.3766667.54-.57.88 6.2 1.77 13.44 1.77 16.63z" fill="#3b97d3"/><circle id="Oval" cx="17.5" cy="25.5" fill="#603e26" r="3.5"/><path id="Shape" d="m20 25.5c.0019718.1955539-.0215598.3905303-.07.58-.2169097.9170574-.9329426 1.6330903-1.85 1.85-.1894697.0484402-.3844461.0719718-.58.07-1.3807119 0-2.5-1.1192881-2.5-2.5s1.1192881-2.5 2.5-2.5 2.5 1.1192881 2.5 2.5z" fill="#fff"/><path id="Shape" d="m19.93 26.08c-.2169097.9170574-.9329426 1.6330903-1.85 1.85-.6849283-.2015362-1.1306331-.8606026-1.0626319-1.5713202.0680013-.7107176.6305941-1.2733104 1.3413117-1.3413117.7107176-.0680012 1.369784.3777036 1.5713202 1.0626319z" fill="#2c2f38"/><circle id="Oval" cx="36.5" cy="25.5" fill="#603e26" r="3.5"/><path id="Shape" d="m27 29c-3.53 0-6.52 3.12-7.58 6.34l7.58 2.66 7.58-2.68c-1.06-3.22-4.05-6.32-7.58-6.32zm0 4c-1.1045695 0-2-.8954305-2-2s.8954305-2 2-2 2 .8954305 2 2-.8954305 2-2 2z" fill="#cbb292"/><circle id="Oval" cx="27" cy="31" fill="#5f5346" r="2"/><path id="Shape" d="m27 38v20l-17-6c1.1045695 0 2-.8954305 2-2v-8c0-1.1045695-.8954305-2-2-2v-8l9.42 3.32z" fill="#e64c3c"/><path id="Shape" d="m42 42v8c0 1.1045695.8954305 2 2 2l-17 6v-20l7.58-2.68 9.42-3.32v8c-1.1045695 0-2 .8954305-2 2z" fill="#c03a2b"/><path id="Shape" d="m12 42v8c0 1.1045695-.8954305 2-2 2h-2c-3.3137085 0-6-2.6862915-6-6s2.6862915-6 6-6h2c.530433 0 1.0391408.2107137 1.4142136.5857864.3750727.3750728.5857864.8837806.5857864 1.4142136z" fill="#805333"/><path id="Shape" d="m52 46c0 3.3137085-2.6862915 6-6 6h-2c-1.1045695 0-2-.8954305-2-2v-8c0-1.1045695.8954305-2 2-2h2c3.3137085 0 6 2.6862915 6 6z" fill="#805333"/><path id="Shape" d="m39 25.5c0 1.3807119-1.1192881 2.5-2.5 2.5-.1955539.0019718-.3905303-.0215598-.58-.07-.9170574-.2169097-1.6330903-.9329426-1.85-1.85-.0484402-.1894697-.0719718-.3844461-.07-.58 0-1.3807119 1.1192881-2.5 2.5-2.5s2.5 1.1192881 2.5 2.5z" fill="#fff"/><path id="Shape" d="m37 26.5c.0022817.6652133-.4395381 1.2502155-1.08 1.43-.9170574-.2169097-1.6330903-.9329426-1.85-1.85.1932538-.7310371.9034392-1.2014088 1.6519381-1.0941155.7484988.1072933 1.297951.7582274 1.2780619 1.5141155z" fill="#2c2f38"/></g></g></svg>